# AST/ASF file generated using VICON BodyLanguage
# -----------------------------------------------
:version 1.10
:name VICON
:units
  mass 1.0
  length 0.45
  angle deg
:documentation
   .ast/.asf automatically generated from VICON data using
   VICON BodyBuilder and BodyLanguage model FoxedUp or BRILLIANT.MOD
:root
   order TX TY TZ RX RY RZ
   axis XYZ
   position 0 0 0  
   orientation 0 0 0 
:bonedata
  begin
     id 1 
     name lhipjoint
     direction 0.535335 -0.74333 0.401095 
     length 2.04549 
     axis 0 0 0  XYZ
  end
  begin
     id 2 
     name lfemur
     direction 0.34202 -0.939693 0  
     length 6.95643  
     axis 0 0 20  XYZ
    dof rx ry rz
    limits (-160.0 20.0)
           (-70.0 70.0)
           (-60.0 70.0)
  end
  begin
     id 3 
     name ltibia
     direction 0.34192 -0.939729 0   
     length 5.55969   
     axis 0 0 20   XYZ
    dof rx
    limits (-10.0 170.0)
  end
  begin
     id 4 
     name lfoot
     direction 0.216943 -0.596046 0.773088   
     length 2.27918   
     axis -90 7.62852e-016 20   XYZ
    dof rx rz
    limits (-45.0 90.0)
           (-70.0 20.0)
  end
  begin
     id 5 
     name ltoes
     direction 1.53519e-011 -4.21748e-011 1   
     length 1.05562   
     axis -90 7.62852e-016 20   XYZ
    dof rx
    limits (-90.0 20.0)
  end
  begin
     id 6 
     name rhipjoint
     direction -0.576368 -0.719173 0.38806   
     length 2.1142  
     axis 0 0 0  XYZ 
  end
  begin
     id 7 
     name rfemur
     direction -0.34202 -0.939693 0   
     length 7.07928   
     axis 0 0 -20   XYZ
    dof rx ry rz
    limits (-160.0 20.0)
           (-70.0 70.0)
           (-70.0 60.0)
  end
  begin
     id 8 
     name rtibia
     direction -0.34202 -0.939693 0   
     length 5.79974   
     axis 0 0 -20   XYZ
    dof rx
    limits (-10.0 170.0)
 end
 begin
     id 9 
     name rfoot
     direction -0.189288 -0.520065 0.832888   
     length 2.42173  
     axis -90 -7.62852e-016 -20   XYZ
    dof rx rz
    limits (-45.0 90.0)
           (-20.0 70.0)
  end
  begin
     id 10 
     name rtoes
     direction -1.53574e-011 -4.21658e-011 1   
     length 1.14469   
     axis -90 -7.62852e-016 -20   XYZ
    dof rx
    limits (-90.0 20.0)
  end
  begin
     id 11 
     name lowerback
     direction -0.00135702 0.993803 0.111144   
     length 1.91308   
     axis 0 0 0   XYZ
    dof rx ry rz
    limits (-20.0 45.0)
           (-30.0 30.0)
           (-30.0 30.0)
  end
  begin
     id 12 
     name upperback
     direction -0.0056745 0.999813 0.0184631   
     length 1.9212   
     axis 0 0 0   XYZ
    dof rx ry rz
    limits (-20.0 45.0)
           (-30.0 30.0)
           (-30.0 30.0)
  end
  begin
     id 13 
     name thorax
     direction -0.00733434 0.999426 -0.0330788   
     length 1.94196   
     axis 0 0 0   XYZ
    dof rx ry rz
    limits (-20.0 45.0)
           (-30.0 30.0)
           (-30.0 30.0)
  end
  begin
     id 14 
     name lowerneck
     direction 0.0563074 0.996944 -0.0541571   
     length 2.34257   
     axis 0 0 0   XYZ
    dof rx ry rz
    limits (-20.0 45.0)
           (-30.0 30.0)
           (-30.0 30.0)
  end
  begin
     id 15 
     name upperneck
     direction -0.0544519 0.976166 -0.210085   
     length 2.32506   
     axis 0 0 0   XYZ
    dof rx ry rz
    limits (-20.0 45.0)
           (-30.0 30.0)
           (-30.0 30.0)
  end
  begin
     id 16
     name head
     direction -0.0226035 0.997615 -0.0652205  
     length 2.3648  
     axis 0 0 0   XYZ
    dof rx ry rz
    limits (-20.0 45.0)
           (-30.0 30.0)
           (-30.0 30.0)
  end
  begin
     id 17 
     name lclavicle
     direction 0.92109 0.381297 -0.0787716  
     length 4.0487  
     axis 0 0 0   XYZ
    dof ry rz
    limits (-20.0 10.0)
           (0.0 20.0)
  end
  begin
     id 18 
     name lhumerus
     direction 1 -4.48986e-011 3.56724e-027   
     length 4.94991   
     axis 180 -30 -90   XYZ
    dof rx ry rz
    limits (-60.0 90.0)
           (-90.0 90.0)
           (-90.0 90.0)
  end
  begin
     id 19
     name lradius
     direction 1 -4.48981e-011 8.62147e-027   
     length 2.7606   
     axis 180 -30 -90   XYZ
    dof rx
    limits (-10.0 170.0)
  end
  begin
     id 20
     name lwrist
     direction 1 -4.48989e-011 1.59799e-026   
     length 1.3803   
     axis -1.17785e-014 90 90   XYZ
    dof ry
    limits (-180.0 0.0)
 end
  begin
     id 21 
     name lhand
     direction 1 -4.48896e-011 3.19599e-026   
     length 0.843936   
     axis -2.03931e-014 90 90   XYZ
    dof rx rz
    limits (-90.0 90.0)
           (-45.0 45.0)
  end
  begin
     id 22 
     name lfingers
     direction 1 -4.48887e-011 6.39197e-026   
     length 0.680403   
     axis -4.07862e-014 90 90   XYZ
    dof rx
    limits (0.0 90.0)
  end
  begin
     id 23
     name lthumb
     direction 0.707107 -6.348e-011 0.707107   
     length 0.976926   
     axis -90 45 2.85299e-015   XYZ
    dof rx rz
    limits (-45.0 45.0)
           (-45.0 45.0)
  end
  begin
     id 24 
     name rclavicle
     direction -0.951104 0.307692 -0.026953   
     length 4.21801  
     axis 0 0 0   XYZ 
    dof ry rz
    limits (-10.0 20.0)
           (-20.0 0.0)
  end
  begin
     id 25 
     name rhumerus
     direction -1 -4.4896e-011 -1.8171e-018  
     length 4.32982   
     axis 180 30 90   XYZ
    dof rx ry rz
    limits (-90.0 60.0)
           (-90.0 90.0)
           (-90.0 90.0)
  end
  begin
     id 26 
     name rradius
     direction -1 -4.48959e-011 8.25165e-027   
     length 3.20057   
     axis 180 30 90   XYZ
    dof rx
    limits (-10.0 170.0)
  end
  begin
     id 27 
     name rwrist
     direction -1 -4.48997e-011 1.59799e-026   
     length 1.60029   
     axis -1.17785e-014 -90 -90   XYZ
    dof ry
    limits (-180.0 0.0)
  end
  begin
     id 28
     name rhand
     direction -1 -4.49023e-011 3.19599e-026   
     length 0.960433   
     axis -2.03931e-014 -90 -90   XYZ
    dof rx rz
    limits (-90.0 90.0)
           (-45.0 45.0)
  end
  begin
     id 29
     name rfingers
     direction -1 -4.48802e-011 6.39197e-026   
     length 0.774326   
     axis -4.07862e-014 -90 -90   XYZ
    dof rx
    limits (0.0 90.0)
  end
  begin
     id 30
     name rthumb
     direction -0.707107 -6.34876e-011 0.707107   
     length 1.11178   
     axis -90 -45 -2.85299e-015   XYZ
    dof rx rz
    limits (-45.0 45.0)
           (-45.0 45.0)
  end
:hierarchy
  begin
    root lhipjoint rhipjoint lowerback
    lhipjoint lfemur
    lfemur ltibia
    ltibia lfoot
    lfoot ltoes
    rhipjoint rfemur
    rfemur rtibia
    rtibia rfoot
    rfoot rtoes
    lowerback upperback
    upperback thorax
    thorax lowerneck lclavicle rclavicle
    lowerneck upperneck
    upperneck head
    lclavicle lhumerus
    lhumerus lradius
    lradius lwrist
    lwrist lhand lthumb
    lhand lfingers
    rclavicle rhumerus
    rhumerus rradius
    rradius rwrist
    rwrist rhand rthumb
    rhand rfingers
end

#!OML:ASF C:\KaitlinTest1\Natural Motions\Nikki\Session 2\Nikki.ASF
:FULLY-SPECIFIED
:DEGREES
230
root -13.9147 16.4222 4.79236 -259.989 88.9468 -274.078
lowerback -3.32866 -0.923497 0.246171
upperback -1.57812 -1.19445 -2.06636
thorax 0.198008 -0.591694 -2.2978
lowerneck -20.5371 -14.1188 -6.95176
upperneck 1.48951 41.1837 4.11171
head 166.516 56.6884 -40.2808
rclavicle -3.97569e-016 2.90226e-014
rhumerus -46.6011 -23.4886 -73.6882
rradius 21.7853
rwrist 16.3293
rhand -37.8639 3.76467
rfingers 7.12502
rthumb -10.908 -25.932
lclavicle -3.97569e-016 2.90226e-014
lhumerus -48.0367 18.6386 67.9937
lradius 31.7595
lwrist -27.6899
lhand -36.1801 4.80894
lfingers 7.12502
lthumb -9.28354 34.5845
rfemur -24.0388 -5.17932 18.2546
rtibia 34.1337
rfoot -19.3465 1.06966
rtoes -1.11319e-013
lfemur -23.5671 5.13588 -21.5644
ltibia 25.6353
lfoot -7.43165 -4.64983
ltoes -6.04305e-014
231
root -13.9411 16.3765 4.8027 -258.677 88.6765 -272.891
lowerback -2.80164 -0.967783 -0.0462064
upperback -1.6116 -1.25153 -2.12209
thorax -0.128157 -0.620508 -2.18209
lowerneck -20.902 -14.1514 -6.93547
upperneck 1.41927 41.3776 4.09786
head 166.713 56.3452 -40.2215
rclavicle 5.56597e-015 2.14687e-014
rhumerus -46.5362 -22.9 -74.2121
rradius 22.0277
rwrist 15.6249
rhand -38.084 3.83254
rfingers 7.12502
rthumb -11.1203 -25.8528
lclavicle 5.56597e-015 2.14687e-014
lhumerus -48.1468 18.5366 67.9803
lradius 31.9771
lwrist -27.5098
lhand -36.4929 5.33052
lfingers 7.12502
lthumb -9.58537 35.0925
rfemur -25.1696 -4.91358 17.9529
rtibia 35.8974
rfoot -19.9832 0.734872
rtoes -7.95139e-014
lfemur -24.6534 4.65322 -21.7074
ltibia 27.3048
lfoot -8.09066 -4.23206
ltoes -3.49861e-014
232
root -13.9555 16.3206 4.80776 -257.984 88.6227 -272.449
lowerback -2.62923 -0.99262 -0.0393029
upperback -1.59978 -1.28715 -2.15185
thorax -0.214687 -0.639012 -2.2142
lowerneck -21.3089 -14.1967 -6.83361
upperneck 1.31222 41.3868 4.06066
head 166.618 56.3246 -40.3574
rclavicle 6.36111e-015 1.35174e-014
rhumerus -46.4385 -22.3838 -74.7294
rradius 22.3663
rwrist 15.1491
rhand -38.2273 4.16193
rfingers 7.12502
rthumb -11.2585 -25.5159
lclavicle 6.36111e-015 1.35174e-014
lhumerus -48.0984 18.4556 67.9921
lradius 32.0843
lwrist -27.4537
lhand -36.8843 5.66919
lfingers 7.12502
lthumb -9.96304 35.4134
rfemur -26.34 -5.1297 18.0627
rtibia 37.7114
rfoot -20.9058 0.487316
rtoes -5.80451e-014
lfemur -25.8864 4.42107 -21.7001
ltibia 29.0961
lfoot -8.85758 -4.01739
ltoes -5.725e-014
233
root -13.968 16.2644 4.81466 -257.186 88.5042 -271.733
lowerback -2.254 -1.00658 -0.113068
upperback -1.59572 -1.3101 -2.1726
thorax -0.420136 -0.65126 -2.18725
lowerneck -21.5717 -14.203 -6.91815
upperneck 1.22522 41.4987 4.03733
head 166.997 56.0182 -40.1455
rclavicle 1.18277e-014 1.43125e-014
rhumerus -46.428 -21.8035 -75.2459
rradius 22.7636
rwrist 14.6375
rhand -38.4325 4.2718
rfingers 7.12502
rthumb -11.4564 -25.3952
lclavicle 1.18277e-014 1.43125e-014
lhumerus -48.0698 18.1385 68.2524
lradius 32.1812
lwrist -27.0965
lhand -37.4646 6.08213
lfingers 7.12502
lthumb -10.5229 35.7987
rfemur -27.4197 -5.14555 17.9676
rtibia 39.5524
rfoot -21.7166 0.374563
rtoes 3.65764e-014
lfemur -26.9518 4.37098 -21.8117
ltibia 30.9357
lfoot -9.67816 -3.93534
ltoes 2.54444e-014
234
root -13.9792 16.1982 4.82148 -254.386 88.3924 -269.01
lowerback -1.97539 -1.06713 -0.215565
upperback -1.54885 -1.3936 -2.1673
thorax -0.528528 -0.692883 -2.12046
lowerneck -21.9426 -14.2242 -6.88742
upperneck 1.15332 41.6509 4.00184
head 167.014 55.8207 -40.2063
rclavicle 6.75868e-015 3.57812e-015
rhumerus -46.2839 -21.1819 -75.8259
rradius 23.1483
rwrist 14.2263
rhand -38.5603 4.29631
rfingers 7.12502
rthumb -11.5797 -25.3638
lclavicle 6.75868e-015 3.57812e-015
lhumerus -47.8923 17.5281 68.7984
lradius 32.3904
lwrist -25.9225
lhand -37.8447 6.6535
lfingers 7.12502
lthumb -10.8894 36.3511
rfemur -28.4637 -5.19964 17.8742
rtibia 41.4112
rfoot -22.5561 0.210624
rtoes 7.95139e-016
lfemur -28.0178 4.18778 -21.8803
ltibia 32.812
lfoot -10.4904 -3.82215
ltoes 3.33958e-014
235
root -13.9876 16.1325 4.82683 -251.785 88.3552 -266.505
lowerback -1.79671 -1.0953 -0.154831
upperback -1.45273 -1.43435 -2.19401
thorax -0.533727 -0.714146 -2.17987
lowerneck -22.3437 -14.271 -6.8264
upperneck 1.05946 41.7529 3.98026
head 167.095 55.6296 -40.2337
rclavicle -5.86415e-015 -1.94809e-014
rhumerus -45.9511 -20.7074 -76.5064
rradius 23.3837
rwrist 13.7604
rhand -38.8537 4.48431
rfingers 7.12502
rthumb -11.8626 -25.1597
lclavicle -5.86415e-015 -1.94809e-014
lhumerus -47.5553 17.0109 69.36
lradius 32.5296
lwrist -24.9024
lhand -38.3621 7.07017
lfingers 7.12502
lthumb -11.3885 36.7409
rfemur -29.4801 -5.1646 17.8564
rtibia 43.2395
rfoot -23.3955 -0.0196505
rtoes 1.7175e-013
lfemur -29.1127 3.92606 -21.8564
ltibia 34.6841
lfoot -11.3219 -3.60437
ltoes 1.47896e-013
236
root -13.9971 16.0607 4.82958 -250.798 88.2355 -265.6
lowerback -1.5096 -1.14518 -0.203176
upperback -1.44275 -1.50499 -2.2105
thorax -0.686095 -0.749915 -2.1643
lowerneck -22.6155 -14.2982 -6.79673
upperneck 0.991052 41.7896 3.93538
head 167.047 55.4933 -40.2846
rclavicle 4.17448e-015 1.59028e-015
rhumerus -45.6983 -20.2953 -76.9845
rradius 23.4687
rwrist 13.7333
rhand -39.1764 4.86394
rfingers 7.12502
rthumb -12.1738 -24.7618
lclavicle 4.17448e-015 1.59028e-015
lhumerus -47.2865 15.5264 70.5725
lradius 32.714
lwrist -22.7934
lhand -38.8829 7.68111
lfingers 7.12502
lthumb -11.8908 37.3235
rfemur -30.5416 -5.13272 17.7297
rtibia 45.068
rfoot -24.1126 -0.192688
rtoes 9.46215e-014
lfemur -30.1629 3.62478 -21.9291
ltibia 36.5515
lfoot -12.131 -3.29946
ltoes 4.13472e-014
237
root -14.0042 15.9872 4.83172 -247.568 88.1853 -262.45
lowerback -1.36065 -1.15983 -0.133036
upperback -1.36489 -1.52767 -2.18027
thorax -0.691564 -0.762227 -2.17039
lowerneck -22.8338 -14.2978 -6.98757
upperneck 0.848874 41.7225 3.86951
head 167.496 55.3283 -39.989
rclavicle -5.96354e-016 1.03368e-014
rhumerus -45.308 -19.7283 -77.567
rradius 23.6639
rwrist 13.3935
rhand -39.4356 4.85919
rfingers 7.12502
rthumb -12.4236 -24.7516
lclavicle -5.96354e-016 1.03368e-014
lhumerus -46.8755 15.0389 71.3384
lradius 32.881
lwrist -21.4483
lhand -38.8962 8.24806
lfingers 7.12502
lthumb -11.9036 37.8897
rfemur -31.5521 -5.06759 17.6869
rtibia 46.8785
rfoot -24.8782 -0.440971
rtoes -1.04958e-013
lfemur -31.2521 3.41375 -21.9467
ltibia 38.4728
lfoot -13.0181 -3.08776
ltoes -3.97569e-014
238
root -14.008 15.9143 4.83471 -245.602 88.1364 -260.482
lowerback -1.15044 -1.32102 -0.11994
upperback -1.22093 -1.74362 -2.28995
thorax -0.673739 -0.870216 -2.2884
lowerneck -23.3511 -14.2748 -6.42872
upperneck 0.746605 41.6066 3.93446
head 166.996 55.738 -40.4422
rclavicle 2.98177e-015 -9.54166e-015
rhumerus -44.633 -19.3309 -78.55
rradius 23.6282
rwrist 13.4592
rhand -39.711 4.97498
rfingers 7.12502
rthumb -12.6892 -24.6195
lclavicle 2.98177e-015 -9.54166e-015
lhumerus -46.4572 15.8552 70.9261
lradius 32.9353
lwrist -21.1136
lhand -38.8305 8.22122
lfingers 7.12502
lthumb -11.8402 37.8665
rfemur -32.4664 -4.80804 17.5221
rtibia 48.7256
rfoot -25.6836 -0.557103
rtoes -5.1684e-014
lfemur -32.231 3.13988 -21.945
ltibia 40.4086
lfoot -13.8749 -2.80446
ltoes 3.18055e-014
239
root -14.0148 15.8229 4.83705 -242.671 88.0924 -257.601
lowerback -0.939642 -1.37338 -0.0262643
upperback -1.20771 -1.81741 -2.31226
thorax -0.784928 -0.908708 -2.35882
lowerneck -23.5599 -14.2419 -6.41815
upperneck 0.765361 42.0142 3.99856
head 167.423 55.2772 -40.2774
rclavicle 3.00165e-014 1.03368e-014
rhumerus -44.2974 -18.7135 -79.3002
rradius 23.8612
rwrist 13.0677
rhand -39.9301 5.21609
rfingers 7.12502
rthumb -12.9004 -24.3652
lclavicle 3.00165e-014 1.03368e-014
lhumerus -45.9987 14.3054 72.2389
lradius 33.2145
lwrist -18.2812
lhand -38.9521 8.43809
lfingers 7.12502
lthumb -11.9575 38.0766
rfemur -33.4239 -4.92325 17.6194
rtibia 50.5956
rfoot -26.4775 -1.09458
rtoes 1.7334e-013
lfemur -33.3227 2.85645 -21.9326
ltibia 42.3952
lfoot -14.7444 -2.51402
ltoes 8.26944e-014
240
root -14.0261 15.7332 4.84171 -238.087 88.0481 -253.16
lowerback -0.732349 -1.40236 0.0285768
upperback -1.18585 -1.86018 -2.233
thorax -0.879514 -0.931389 -2.30291
lowerneck -23.8486 -14.3286 -6.50976
upperneck 0.605453 41.7474 3.86069
head 167.265 55.3457 -40.3305
rclavicle 1.16289e-014 -6.75868e-015
rhumerus -43.6801 -18.2788 -79.8544
rradius 23.9185
rwrist 12.8307
rhand -40.1366 5.36501
rfingers 7.12502
rthumb -13.0994 -24.2036
lclavicle 1.16289e-014 -6.75868e-015
lhumerus -45.3923 13.9995 73.0682
lradius 33.4386
lwrist -16.6515
lhand -38.6562 8.53585
lfingers 7.12502
lthumb -11.6721 38.1907
rfemur -34.6026 -4.92143 17.6869
rtibia 52.5187
rfoot -27.1675 -1.46382
rtoes 3.33958e-014
lfemur -34.5492 2.50789 -21.8563
ltibia 44.3778
lfoot -15.5765 -2.22576
ltoes 1.41535e-013
241
root -14.035 15.6395 4.84298 -235.26 87.8676 -250.234
lowerback -0.364968 -1.30441 0.00526921
upperback -1.3225 -1.73743 -2.06158
thorax -1.21436 -0.871877 -2.10307
lowerneck -23.4927 -14.4363 -7.24061
upperneck 0.682072 41.9576 3.6731
head 167.577 54.6467 -39.9685
rclavicle -1.22253e-014 -8.34896e-015
rhumerus -43.7074 -17.5984 -79.9747
rradius 24.2607
rwrist 12.1964
rhand -40.2938 5.42274
rfingers 7.12502
rthumb -13.251 -24.1361
lclavicle -1.22253e-014 -8.34896e-015
lhumerus -45.5293 15.0451 73.3435
lradius 34.0312
lwrist -17.0037
lhand -37.6533 8.32322
lfingers 7.12502
lthumb -10.7048 38.0305
rfemur -35.4953 -5.14588 17.5996
rtibia 54.4427
rfoot -27.9594 -1.64175
rtoes -2.38542e-014
lfemur -35.436 2.10668 -21.9406
ltibia 46.352
lfoot -16.4486 -1.87236
ltoes 2.06736e-014
242
root -14.047 15.5468 4.84577 -232.453 87.7396 -247.451
lowerback -1.37958 -1.49295 0.148568
upperback -0.031707 -1.95426 -2.39409
thorax 0.65192 -0.964664 -2.57407
lowerneck -25.573 -14.6556 -5.8849
upperneck -0.655483 39.5038 2.86301
head 164.754 57.0275 -41.8449
rclavicle -9.34288e-015 -1.70955e-014
rhumerus -40.7709 -17.9776 -81.8605
rradius 23.9345
rwrist 12.5356
rhand -40.5696 5.92155
rfingers 7.12502
rthumb -13.5169 -23.6198
lclavicle -9.34288e-015 -1.70955e-014
lhumerus -42.9489 15.6071 73.7451
lradius 34.5833
lwrist -15.7065
lhand -37.0336 8.44093
lfingers 7.12502
lthumb -10.107 38.1782
rfemur -36.5434 -5.24163 17.562
rtibia 56.3534
rfoot -28.7014 -1.87826
rtoes -8.98507e-014
lfemur -36.5062 1.72789 -21.9517
ltibia 48.2824
lfoot -17.2639 -1.55454
ltoes -4.77083e-014
243
root -14.0542 15.4485 4.84983 -230.508 87.5826 -245.504
lowerback -1.0203 -1.56387 0.0614236
upperback -0.0348486 -2.05281 -2.35467
thorax 0.447405 -1.0157 -2.47498
lowerneck -25.6531 -14.6174 -6.00887
upperneck -0.790192 39.1876 2.81057
head 164.987 57.2633 -41.6405
rclavicle -1.86858e-014 5.1684e-015
rhumerus -40.007 -17.4143 -82.6413
rradius 23.9368
rwrist 12.2729
rhand -40.8826 6.05759
rfingers 7.12502
rthumb -13.8185 -23.4634
lclavicle -1.86858e-014 5.1684e-015
lhumerus -41.1179 14.1888 75.1808
lradius 32.9921
lwrist -13.0203
lhand -37.1941 8.41904
lfingers 7.12502
lthumb -10.2619 38.1487
rfemur -37.4698 -5.4003 17.5129
rtibia 58.2027
rfoot -29.5019 -2.13224
rtoes -1.59028e-014
lfemur -37.4401 1.39736 -22.0122
ltibia 50.1339
lfoot -17.9324 -1.3145
ltoes 4.45278e-014
